<svg version="1.1" xmlns="http://www.w3.org/2000/svg" xmlns:xlink="http://www.w3.org/1999/xlink" x="0px" y="0px"
	 width="16px" height="18.7px" viewBox="690.5 584.9 16 18.7" enable-background="new 690.5 584.9 16 18.7" xml:space="preserve">
<path fill="#D22778" d="M690.6,597.3v3.1c0.4,1.8,3.7,3.1,7.9,3.1s7.7-1.4,8-3.1v-3.1c-1.4,1.1-4.2,1.9-8.1,1.9
	C694.6,599.2,691.8,598.4,690.6,597.3L690.6,597.3z M699.2,593.4h-1.6c-2.3-0.1-4.2-0.4-5.4-0.9c-0.5-0.3-1.2-0.5-1.5-0.8v3.3
	c0.9,1.1,3.9,2,7.9,2c4.1,0,6.9-0.9,7.9-2v-3.3c-0.4,0.3-0.9,0.7-1.5,0.8C703.4,593,701.5,593.3,699.2,593.4L699.2,593.4z
	 M698.4,584.9c-4.7,0-7.5,1.5-7.9,3.1v0.9c0.9,1.1,3.9,2,7.9,2c3.9,0,6.9-0.9,7.9-2v-0.8C705.8,586.4,703.1,584.9,698.4,584.9z"/>
</svg>
