<svg xmlns="http://www.w3.org/2000/svg" width="16" height="16" viewBox="226.6 226.5 16 16">
	<path fill="#D22778" d="M233.6 232.7l-6.6 6.6c-.2.2-.4.5-.4.9s.1.6.4.9l1 1.1c.3.2.5.4.9.4.3 0 .6-.1.9-.4l6.6-6.6c-.6-.3-1.2-.6-1.7-1.1-.5-.6-.9-1.1-1.1-1.8zm-3.7 7.4c-.1.1-.3.2-.4.2-.2 0-.3-.1-.4-.2-.1-.1-.2-.3-.2-.4 0-.2.1-.3.2-.4.1-.1.3-.2.4-.2.2 0 .3.1.4.2.1.1.2.3.2.4 0 .1-.1.2-.2.4zM242.5 231.1c-.1-.1-.1-.1-.2-.1s-.3.1-.7.3c-.4.2-.8.5-1.3.8-.5.3-.7.5-.8.5l-1.9-1v-2.2l2.9-1.6c.1-.1.2-.2.2-.3 0-.1-.1-.2-.2-.3-.3-.2-.6-.3-1-.5-.4-.1-.8-.2-1.2-.2-1.2 0-2.2.4-3.1 1.3-.9.9-1.3 1.9-1.3 3.1 0 1.2.4 2.2 1.3 3.1.9.9 1.9 1.3 3.1 1.3.9 0 1.8-.3 2.5-.8.8-.5 1.3-1.2 1.6-2.1.1-.4.2-.8.2-1-.1-.2-.1-.3-.1-.3z"/>
</svg>