<?xml version="1.0" encoding="utf-8"?>
<!-- Generator: Adobe Illustrator 17.1.0, SVG Export Plug-In . SVG Version: 6.00 Build 0)  -->
<!DOCTYPE svg PUBLIC "-//W3C//DTD SVG 1.1//EN" "http://www.w3.org/Graphics/SVG/1.1/DTD/svg11.dtd">
<svg version="1.1" id="Layer_1" xmlns="http://www.w3.org/2000/svg" xmlns:xlink="http://www.w3.org/1999/xlink" x="0px" y="0px"
	 width="17px" height="17.4px" viewBox="387.3 297.3 17 17.4" enable-background="new 387.3 297.3 17 17.4" xml:space="preserve">
<path stroke="#D22778" stroke-width="1.0616" stroke-miterlimit="10" d="M390.9,303.1h-1.6c-0.7,0-1.2,0.5-1.2,1.2v4
	c0,0.2,0.2,0.4,0.4,0.4s0.4-0.2,0.4-0.4v-1.2h2.4v1.2c0,0.2,0.2,0.4,0.4,0.4s0.4-0.2,0.4-0.4v-4
	C392.1,303.6,391.6,303.1,390.9,303.1L390.9,303.1z M391.3,306.3h-2.4v-2c0-0.2,0.2-0.4,0.4-0.4h1.6c0.2,0,0.4,0.2,0.4,0.4V306.3z
	 M396.1,303.1h-1.6c-0.2,0-0.4,0.2-0.4,0.4v4.9c0,0.2,0.2,0.4,0.4,0.4s0.4-0.2,0.4-0.4v-1.2h1.2c1.1,0,2-0.9,2-2
	S397.3,303.1,396.1,303.1L396.1,303.1z M396.1,306.3h-1.2v-2.4h1.2c0.7,0,1.2,0.5,1.2,1.2C397.4,305.8,396.8,306.3,396.1,306.3
	L396.1,306.3z M403,308h-1.2v-4h1.2c0.2,0,0.4-0.2,0.4-0.4s-0.2-0.4-0.4-0.4h-3.2c-0.2,0-0.4,0.2-0.4,0.4s0.2,0.4,0.4,0.4h1.2v4
	h-1.2c-0.2,0-0.4,0.2-0.4,0.4s0.2,0.4,0.4,0.4h3.2c0.2,0,0.4-0.2,0.4-0.4S403.2,308,403,308z"/>
<path stroke="#D22778" stroke-width="0.913" stroke-miterlimit="10" d="M402.7,299.1h-5.4l-1.3-1.3c-0.1-0.1-0.4-0.1-0.5,0l-1.3,1.3
	h-5.4c-0.6,0-1,0.5-1,1v1c0,0.2,0.2,0.3,0.3,0.3s0.3-0.2,0.3-0.3v-1c0-0.2,0.2-0.3,0.3-0.3h5.6c0.1,0,0.2,0,0.2-0.1l1.1-1.1l1.1,1.1
	c0.1,0.1,0.2,0.1,0.2,0.1h5.6c0.2,0,0.3,0.2,0.3,0.3v1c0,0.2,0.2,0.3,0.3,0.3s0.3-0.2,0.3-0.3v-1
	C403.7,299.6,403.3,299.1,402.7,299.1z"/>
<path stroke="#D22778" stroke-width="0.913" stroke-miterlimit="10" d="M403.4,310.5c-0.2,0-0.3,0.2-0.3,0.3v1
	c0,0.2-0.2,0.3-0.3,0.3h-5.6c-0.1,0-0.2,0-0.2,0.1l-1.1,1.1l-1.1-1.1c-0.1-0.1-0.2-0.1-0.2-0.1H389c-0.2,0-0.3-0.2-0.3-0.3v-1
	c0-0.2-0.2-0.3-0.3-0.3s-0.3,0.2-0.3,0.3v1c0,0.6,0.5,1,1,1h5.4l1.3,1.3c0.1,0.1,0.2,0.1,0.2,0.1c0.1,0,0.2,0,0.2-0.1l1.3-1.3h5.4
	c0.6,0,1-0.5,1-1v-1C403.7,310.6,403.6,310.5,403.4,310.5L403.4,310.5z"/>
</svg>
