<svg version="1.1" id="Capa_1" xmlns="http://www.w3.org/2000/svg" xmlns:xlink="http://www.w3.org/1999/xlink" x="0px" y="0px"
	 width="16px" height="15.7px" viewBox="220.4 220.6 16 15.7" enable-background="new 220.4 220.6 16 15.7" xml:space="preserve">
<g>
	<g>
		<path fill="#444444" d="M236.2,229.1c-0.1-0.1-0.3-0.2-0.4-0.2h-2.2V226l1.7-1.7c0.1-0.1,0.2-0.3,0.2-0.5c0-0.2-0.1-0.3-0.2-0.4
			c-0.1-0.1-0.3-0.2-0.4-0.2c-0.2,0-0.3,0.1-0.4,0.2l-1.7,1.7h-8.4l-1.7-1.7c-0.1-0.1-0.3-0.2-0.4-0.2c-0.2,0-0.3,0.1-0.5,0.2
			c-0.1,0.1-0.2,0.3-0.2,0.4c0,0.2,0.1,0.3,0.2,0.5l1.7,1.7v2.9h-2.2c-0.2,0-0.3,0.1-0.4,0.2c-0.1,0.1-0.2,0.3-0.2,0.4
			c0,0.2,0.1,0.3,0.2,0.4c0.1,0.1,0.3,0.2,0.4,0.2h2.2c0,1.1,0.2,2,0.6,2.7l-2,2.3c-0.1,0.1-0.2,0.3-0.2,0.5c0,0.2,0.1,0.3,0.2,0.4
			c0.1,0.1,0.3,0.2,0.4,0.2c0.2,0,0.3-0.1,0.5-0.2l1.8-2.1l0.2,0.1c0.1,0.1,0.2,0.2,0.4,0.3c0.2,0.1,0.4,0.3,0.7,0.4
			c0.2,0.1,0.5,0.2,0.9,0.3c0.3,0.1,0.7,0.1,1,0.1v-9h1.3v9c0.3,0,0.6,0,1-0.1c0.3-0.1,0.6-0.2,0.8-0.3c0.2-0.1,0.4-0.2,0.6-0.4
			c0.2-0.1,0.4-0.2,0.4-0.3c0.1-0.1,0.1-0.1,0.2-0.1l2,2c0.1,0.1,0.3,0.2,0.4,0.2c0.2,0,0.3-0.1,0.5-0.2c0.1-0.1,0.2-0.3,0.2-0.5
			c0-0.2-0.1-0.3-0.2-0.4l-2.1-2.1c0.4-0.8,0.7-1.8,0.7-2.9h2.2c0.2,0,0.3-0.1,0.4-0.2c0.1-0.1,0.2-0.3,0.2-0.4
			C236.4,229.4,236.4,229.2,236.2,229.1z"/>
		<path fill="#444444" d="M230.7,221.5c-0.6-0.6-1.4-0.9-2.3-0.9c-0.9,0-1.6,0.3-2.3,0.9c-0.6,0.6-0.9,1.4-0.9,2.3h6.4
			C231.6,222.9,231.3,222.1,230.7,221.5z"/>
	</g>
</g>
</svg>
