<svg version="1.1" xmlns="http://www.w3.org/2000/svg" xmlns:xlink="http://www.w3.org/1999/xlink" x="0px" y="0px" viewBox="0 0 16 16" enable-background="new 0 0 16 16" xml:space="preserve" width="16px" height="16px">
    <path class="dumpsRecorderIconPath" d="M16,9.2h-0.8l0.5-6.3l-8.8,0v0.9h0.8l0,5.4H6.8V7.9V4.8c0-0.2-0.2-0.4-0.4-0.4H1.8c-0.2,0-0.3,0.1-0.4,0.3
        L0.2,7.5c0,0.1,0,0.1,0,0.2v0.2v1.3H0V11h0.6c0,0,0,0,0,0H1c0,0.2-0.1,0.3-0.1,0.5c0,1,0.8,1.8,1.8,1.8c1,0,1.8-0.8,1.8-1.8
        c0-0.2,0-0.3-0.1-0.5h2c0,0,0,0,0,0h4.6c0,0.2-0.1,0.3-0.1,0.5c0,1,0.8,1.8,1.8,1.8c1,0,1.8-0.8,1.8-1.8c0-0.2,0-0.3-0.1-0.5H16
        L16,9.2L16,9.2z M2.7,12.3c-0.5,0-0.9-0.4-0.9-0.9c0-0.5,0.4-0.9,0.9-0.9c0.5,0,0.9,0.4,0.9,0.9C3.5,11.9,3.1,12.3,2.7,12.3z
         M5.9,7.5H1.2l0.9-2.2h3.7L5.9,7.5L5.9,7.5z M12.6,12.3c-0.5,0-0.9-0.4-0.9-0.9c0-0.5,0.4-0.9,0.9-0.9c0.5,0,0.9,0.4,0.9,0.9
        C13.5,12,13.1,12.3,12.6,12.3z" fill="#D22778"></path>
</svg>