<?xml version="1.0" encoding="utf-8"?>
<!-- Generator: Adobe Illustrator 17.1.0, SVG Export Plug-In . SVG Version: 6.00 Build 0)  -->
<!DOCTYPE svg PUBLIC "-//W3C//DTD SVG 1.1//EN" "http://www.w3.org/Graphics/SVG/1.1/DTD/svg11.dtd">
<svg version="1.1" id="Layer_1" xmlns="http://www.w3.org/2000/svg" xmlns:xlink="http://www.w3.org/1999/xlink" x="0px" y="0px"
	 width="16px" height="14.8px" viewBox="388 279.5 16 14.8" enable-background="new 388 279.5 16 14.8" xml:space="preserve">
<path fill="#444444" d="M397.1,291.7V290c0-0.1,0-0.2-0.1-0.2c-0.1-0.1-0.1-0.1-0.2-0.1h-1.7c-0.1,0-0.1,0-0.2,0.1
	c-0.1,0.1-0.1,0.1-0.1,0.2v1.7c0,0.1,0,0.2,0.1,0.2c0.1,0.1,0.1,0.1,0.2,0.1h1.7c0.1,0,0.1,0,0.2-0.1
	C397.1,291.9,397.1,291.8,397.1,291.7z M397.1,288.4l0.2-4.1c0-0.1,0-0.1-0.1-0.2c-0.1-0.1-0.1-0.1-0.2-0.1h-2c-0.1,0-0.1,0-0.2,0.1
	c-0.1,0-0.1,0.1-0.1,0.2l0.2,4.1c0,0.1,0,0.1,0.1,0.1s0.1,0.1,0.2,0.1h1.6c0.1,0,0.2,0,0.2-0.1S397.1,288.4,397.1,288.4z M397,280.1
	l6.8,12.6c0.2,0.4,0.2,0.7,0,1.1c-0.1,0.2-0.2,0.3-0.4,0.4c-0.2,0.1-0.4,0.2-0.6,0.2h-13.7c-0.2,0-0.4-0.1-0.6-0.2
	c-0.2-0.1-0.3-0.2-0.4-0.4c-0.2-0.4-0.2-0.7,0-1.1l6.8-12.6c0.1-0.2,0.2-0.3,0.4-0.4c0.2-0.1,0.4-0.2,0.6-0.2s0.4,0.1,0.6,0.2
	C396.8,279.7,396.9,279.9,397,280.1z"/>
</svg>
