<svg version="1.1" xmlns="http://www.w3.org/2000/svg" xmlns:xlink="http://www.w3.org/1999/xlink" x="0px" y="0px" viewBox="248 248 16 16" enable-background="new 248 248 16 16" xml:space="preserve" width="16px" height="16px">
    <path d="M248,256c0,4.4,3.6,8,8,8c4.4,0,8-3.6,8-8s-3.6-8-8-8C251.6,248,248,251.6,248,256z M262,256
        c0,1.1-0.3,2.2-0.9,3.1l-8.2-8.2c0.9-0.6,2-0.9,3.1-0.9C259.3,250,262,252.7,262,256z M250,256c0-1.1,0.3-2.2,0.9-3.1l8.2,8.2
        c-0.9,0.6-2,0.9-3.1,0.9C252.7,262,250,259.3,250,256z" fill="#D22778"></path>
</svg>