<svg version="1.1" xmlns="http://www.w3.org/2000/svg" xmlns:xlink="http://www.w3.org/1999/xlink" x="0px" y="0px" width="14.2px" height="16px" viewBox="388.9 298 14.2 16" enable-background="new 388.9 298 14.2 16" xml:space="preserve">
    <path fill="#D22778" d="M394.6,307.5c-0.1,0.1-0.1,0.1-0.1,0.2l-1,3.2c0,0.1,0,0.2,0.1,0.3c0.1,0.1,0.1,0.1,0.2,0.1c0,0,0,0,0.1,0
        c0,0,0,0,0,0l3.3-1.1c0.1,0,0.1-0.1,0.1-0.1l5.9-5.9c0.1-0.1,0.1-0.1,0.1-0.2c0-0.1,0-0.2-0.1-0.2l-2.2-2.2
        c-0.1-0.1-0.1-0.1-0.2-0.1c-0.1,0-0.2,0-0.2,0.1l-0.2,0.2v-3.4c0-0.1,0-0.2-0.1-0.3c-0.1-0.1-0.2-0.1-0.3-0.1h-6.5l0,0h-0.8
        c0,0,0,0,0,0h-0.1v0.1l-3.3,3.3c0,0,0,0,0,0.1h0v0.1v0.9v11.2c0,0.1,0,0.2,0.1,0.3c0.1,0.1,0.2,0.1,0.3,0.1h3.1h4.2h3.1
        c0.1,0,0.2,0,0.3-0.1c0.1-0.1,0.1-0.2,0.1-0.4v-4.2c0-0.1,0-0.1-0.1-0.2c0,0-0.1,0-0.2,0.1l-0.2,0.2c-0.1,0.1-0.2,0.2-0.4,0.3
        c-0.1,0.1-0.3,0.3-0.6,0.6v2.3h-2.1h-4.2h-2.1v-10.1h2.9c0.1,0,0.2-0.1,0.2-0.2v-2.9h5.4v3.9L394.6,307.5z M394.6,310l0.6-1.8
        l1.2,1.2L394.6,310z"></path>
</svg>