<svg version="1.1" xmlns="http://www.w3.org/2000/svg" xmlns:xlink="http://www.w3.org/1999/xlink" x="0px" y="0px"
	 width="16px" height="16px" viewBox="386 296 16 16" enable-background="new 386 296 16 16" xml:space="preserve">
<path fill="#D22778" d="M401.7,304.8l-7,7c-0.4,0.4-1.1,0.4-1.5,0l-1.5-1.5l1.8-1.8c0.4,0.1,0.9,0,1.3-0.3c0.3-0.3,0.4-0.8,0.3-1.3
	l1.8-1.8c0.4,0.1,0.9,0.1,1.3-0.3c0.5-0.5,0.5-1.3,0-1.7c-0.5-0.5-1.3-0.5-1.7,0c-0.4,0.4-0.4,0.9-0.3,1.3l-1.7,1.7v-4.4
	c0.1-0.1,0.2-0.1,0.3-0.2c0.5-0.5,0.5-1.3,0-1.7c-0.5-0.5-1.3-0.5-1.7,0c-0.5,0.5-0.5,1.3,0,1.7c0.1,0.1,0.3,0.2,0.4,0.3v4.4
	c-0.1,0.1-0.3,0.1-0.4,0.3c-0.4,0.4-0.4,0.9-0.3,1.3l-1.8,1.8l-4.8-4.8c-0.4-0.4-0.4-1.1,0-1.5l7-7c0.4-0.4,1.1-0.4,1.5,0l7,7
	C402.1,303.7,402.1,304.4,401.7,304.8"/>
</svg>
