<svg xmlns="http://www.w3.org/2000/svg" xmlns:xlink="http://www.w3.org/1999/xlink" version="1.1" x="0px" y="0px" viewBox="0 0 16.539 16.539" style="enable-background:new 0 0 16.539 16.539;" xml:space="preserve" width="16px" height="16px">
    <g>
        <path d="M15.436,0.68H1.104C0.495,0.68,0,1.177,0,1.791V11.97c0,0.614,0.495,1.111,1.104,1.111h5.498    c0,0-0.965,2.223-3.612,2.223v0.556h1.945h4.724h3.612v-0.556c-2.72,0-3.335-2.223-3.335-2.223h5.501    c0.608,0,1.102-0.497,1.102-1.111V1.791C16.537,1.177,16.044,0.68,15.436,0.68z M15.356,11.28H1.182V1.861h14.174V11.28z" fill="#D22778"></path>
        <polygon points="7.155,8.41 4.503,6.565 4.503,6.542 7.155,4.697 7.155,3.468 3.649,6.055 3.649,7.053     7.155,9.64   " fill="#D22778"></polygon>
        <polygon points="12.989,6.02 9.483,3.468 9.483,4.697 12.194,6.542 12.194,6.565 9.483,8.41 9.483,9.64     12.989,7.087   " fill="#D22778"></polygon>
    </g>
</svg>