<svg version="1.1" id="Layer_1" xmlns="http://www.w3.org/2000/svg" xmlns:xlink="http://www.w3.org/1999/xlink" x="0px" y="0px"
	 width="16px" height="11px" viewBox="248 250.4 16 11" enable-background="new 248 250.4 16 11" xml:space="preserve">
<path fill="#D22778" d="M263.9,255.4l-2.2,6h-12.1l2.3-6c0.2-0.5,0.8-1,1.4-1h9.9C263.8,254.5,264.1,254.9,263.9,255.4L263.9,255.4z
	 M249,260.4l2.1-5.4c0.3-0.9,1.3-1.6,2.3-1.6h8.7c0-0.5-0.5-1-1-1h-7l-1-2h-4c-0.5,0-1,0.5-1,1v7.9C248,260,248.5,260.4,249,260.4
	L249,260.4z"/>
</svg>
