<svg version="1.1" xmlns="http://www.w3.org/2000/svg" xmlns:xlink="http://www.w3.org/1999/xlink" x="0px" y="0px"
	 width="16px" height="16px" viewBox="0 0 16 16" enable-background="new 0 0 16 16" xml:space="preserve">
<g>
	<path fill="#D22778" d="M12.9,6.3c-0.2,0-0.4,0-0.5,0v1.5c0.1,0,0.2,0,0.4,0c0.6,0,1-0.3,1-0.8C13.8,6.6,13.5,6.3,12.9,6.3z"/>
	<path fill="#D22778" d="M15,0H1C0.5,0,0,0.5,0,1v14c0,0.6,0.5,1,1,1h14c0.6,0,1-0.5,1-1V1C16,0.5,15.5,0,15,0z M4.9,8.2
		c-0.4,0.4-1,0.5-1.7,0.5c-0.2,0-0.3,0-0.4,0v1.8H1.7v-5C2,5.5,2.5,5.4,3.2,5.4c0.7,0,1.2,0.1,1.6,0.4C5.1,6.1,5.3,6.5,5.3,7
		S5.2,7.9,4.9,8.2z M10.3,10.6H9.1V8.4H7.2v2.1H6.1V5.5h1.2v2h1.9v-2h1.2V10.6z M14.5,8.2c-0.4,0.4-1,0.5-1.7,0.5
		c-0.2,0-0.3,0-0.4,0v1.8h-1.1v-5c0.4-0.1,0.9-0.1,1.6-0.1c0.7,0,1.2,0.1,1.6,0.4C14.7,6.1,15,6.5,15,7C14.9,7.5,14.8,7.9,14.5,8.2z
		"/>
	<path fill="#D22778" d="M3.3,6.3c-0.2,0-0.4,0-0.5,0v1.5c0.1,0,0.2,0,0.4,0c0.6,0,1-0.3,1-0.8C4.2,6.6,3.9,6.3,3.3,6.3z"/>
</g>
</svg>
