<svg version="1.1" xmlns="http://www.w3.org/2000/svg" xmlns:xlink="http://www.w3.org/1999/xlink" x="0px" y="0px"
	 width="16px" height="17.7px" viewBox="388 297.2 16 17.7" enable-background="new 388 297.2 16 17.7" xml:space="preserve">
<path fill="#D22778" d="M396,303.1c-1,0-1.8,0.8-1.8,1.8c0,0.5,0.2,0.9,0.5,1.3v8.8h2.5V306c0.3-0.3,0.5-0.7,0.5-1.2
	C397.8,303.8,397,303.1,396,303.1z"/>
<path fill="#D22778" d="M396,297.2c-4.4,0-8,3.6-8,8c0,2.8,1.5,5.3,3.7,6.7c0,0,0.2,0.1,0.2-0.2c0-0.3,0-1,0-1.1
	c0-0.1-0.2-0.2-0.2-0.2c-1.5-1.2-2.4-3.1-2.4-5.1c0-3.7,3-6.7,6.7-6.7s6.7,3,6.7,6.7c0,2-0.9,3.8-2.3,5c0,0-0.2,0.2-0.2,0.3
	c0,0.1,0,0.9,0,1.1s0.2,0.2,0.2,0.2c2.1-1.4,3.5-3.9,3.5-6.6C404,300.8,400.4,297.2,396,297.2z"/>
<path fill="#D22778" d="M396,299.8c-2.8,0-5,2.3-5,5c0,1.9,1.1,3.6,2.6,4.4c0,0,0.3,0.1,0.3-0.2c0-0.3,0-1,0-1.1
	c0-0.2-0.3-0.3-0.3-0.3c-0.8-0.7-1.3-1.7-1.3-2.8c0-2.1,1.7-3.8,3.8-3.8c2.1,0,3.8,1.7,3.8,3.8c0,1.1-0.5,2.1-1.3,2.8
	c0,0-0.2,0.1-0.2,0.3c0,0.1,0,0.9,0,1.1c0,0.2,0.2,0.2,0.2,0.2c1.6-0.9,2.6-2.5,2.6-4.4C401.1,302.1,398.8,299.8,396,299.8z"/>
</svg>
