<svg xmlns="http://www.w3.org/2000/svg" version="1.1" width="16" height="16" viewBox="223.3 227.6 24.9 16">
    <g fill="#D22778">
        <path d="M248,241.9c-0.2-0.2-0.2-0.2-0.3-0.2h-14.4c-0.2,0-0.3,0-0.3,0.2c-0.2,0.2-0.2,0.2-0.2,0.3v0.9c0,0.2,0,0.3,0.2,0.3 c0.2,0.2,0.2,0.2,0.3,0.2h14.4c0.2,0,0.3,0,0.3-0.2c0.2-0.2,0.2-0.2,0.2-0.3v-0.8C248.1,242.3,248.1,242.1,248,241.9z"/>
        <path d="M224.8,227.8c-0.2-0.2-0.2-0.2-0.3-0.2c-0.2,0-0.3,0-0.3,0.2l-0.8,0.8c-0.2,0.2-0.2,0.2-0.2,0.3c0,0.2,0,0.3,0.2,0.3 l5.9,5.9l-5.9,5.9c-0.2,0.2-0.2,0.2-0.2,0.3c0,0.2,0,0.3,0.2,0.3l0.8,0.8c0.2,0.2,0.2,0.2,0.3,0.2c0.2,0,0.3,0,0.3-0.2l7-7 c0.2-0.2,0.2-0.2,0.2-0.3c0-0.2,0-0.3-0.2-0.3L224.8,227.8z"/>
    </g>
</svg>
