<svg xmlns="http://www.w3.org/2000/svg" xmlns:xlink="http://www.w3.org/1999/xlink" version="1.1" x="0px" y="0px" width="16px" height="16px" viewBox="0 0 503.924 503.924" style="enable-background:new 0 0 503.924 503.924;" xml:space="preserve">
    <g>
        <path d="M193.932,339.267c15.08,4.858,17.193-0.373,8.568-13.664c-14.736-22.721-28.104-64.069,1.473-125.872    c31.652-66.89,75.525-93.502,83.433-94.946c6.302-1.147-43.28,74.683-45.604,114.463c-1.052,17.93,27.043,31.375,43.959,20.894    c21.793-13.512,20.177-56.801,19.632-63.428c-0.641-7.717,41.291,95.616-10.06,152.254c-10.644,11.743-9.343,17.796,6.101,14.239    c30.218-6.952,74.626-27.272,81.645-86.665c6.761-83.548-69.901-201.196-118.192-250.337c-11.102-11.303-16.572-6.55-16.027,9.285    c0.812,23.801-6.618,60.808-45.594,103.667c-61.114,67.205-74.855,80.354-83.079,135.941    C120.176,284.685,119.296,315.246,193.932,339.267z" fill="#D22778"></path>
        <path d="M74.85,485.497c3.481,11.016,13.579,18.427,25.121,18.427c2.687,0,5.364-0.411,7.956-1.233l144.03-45.509l144.031,45.509    c2.582,0.812,5.26,1.233,7.947,1.233c11.551,0,21.649-7.401,25.12-18.418l6.503-20.568c2.123-6.723,1.501-13.856-1.75-20.101    c-3.242-6.244-8.74-10.854-15.443-12.977l-43.127-13.636l4.284-1.358c6.713-2.122,12.201-6.731,15.452-12.976    c3.242-6.254,3.863-13.388,1.741-20.11l-6.503-20.568c-3.48-11.017-13.579-18.428-25.121-18.428c-2.687,0-5.364,0.411-7.955,1.233    l-105.179,33.239L146.77,346.018c-2.582-0.812-5.259-1.233-7.947-1.233c-11.551,0-21.649,7.401-25.121,18.418L107.2,383.78    c-4.379,13.856,3.328,28.697,17.193,33.077l4.284,1.357L85.56,431.851c-6.713,2.123-12.202,6.732-15.453,12.977    c-3.242,6.244-3.863,13.378-1.741,20.101L74.85,485.497z" fill="#D22778"></path>
    </g>
</svg>