<svg version="1.1" xmlns="http://www.w3.org/2000/svg" xmlns:xlink="http://www.w3.org/1999/xlink" x="0px" y="0px"
	 width="16px" height="16px" viewBox="0 0 16 16" style="enable-background:new 0 0 16 16;" xml:space="preserve">
<g>
	<path fill="#D22778" d="M12.6,5.9c-0.2,0-0.4,0-0.6,0c-0.9,0-1.6,0.6-1.6,1.6v5.2c0,1,0.5,1.6,1.6,1.6c0.4,0,0.7-0.2,0.7-0.5
		c0-0.4-0.2-0.6-0.7-0.6c-0.4,0-0.5-0.1-0.5-0.4c0-1.7,0-3.4,0-5.2c0-0.4,0.1-0.4,0.4-0.4h2.3c0.4,0,0.5,0,0.5,0.5v3.8
		c0,0.4,0.2,0.7,0.6,0.7c0.3,0,0.5-0.2,0.5-0.7c0-1.3,0-2.7,0-3.9c0-0.9-0.6-1.5-1.6-1.5c-0.2,0-0.4,0-0.6,0c0-0.1,0-0.2,0-0.2
		c0-0.7,0-1.3,0-2c0-1.2-0.7-1.9-1.9-1.9c-3.3-0.1-6.6-0.1-10-0.1C0.8,1.8,0,2.5,0,3.6v6.5c0,1,0.8,1.8,1.8,1.8h4.1h0.3v1.2
		c-0.5,0-0.9,0-1.4,0c-0.2,0-0.5,0.1-0.5,0.4c-0.2,0.4,0.1,0.8,0.6,0.8h3.4h0.5c0.3,0,0.5-0.3,0.5-0.6c0-0.3-0.2-0.5-0.6-0.5
		c-0.4,0-0.8,0-1.2,0c-0.1,0-0.2,0-0.2,0c0-0.4,0-0.8,0-1.2h1.2c0.4,0,0.6-0.2,0.6-0.5s-0.2-0.6-0.6-0.6c-0.1,0-0.1,0-0.2,0
		c-2.3,0-4.5,0-6.8,0c-0.5,0-0.6-0.2-0.6-0.6c0-2.2,0-4.3,0-6.5c0-0.5,0.2-0.7,0.7-0.7h6.7H12c0.4,0,0.6,0.2,0.6,0.5V5.9z"/>
	<path fill="#D22778" d="M12.6,5.9c0-0.9,0-1.7,0-2.5c0-0.3-0.2-0.5-0.6-0.5c-1.2,0-2.3,0-3.5,0c-2.3,0-4.4,0-6.7,0
		c-0.5,0-0.7,0.2-0.7,0.7v6.5c0,0.5,0.2,0.6,0.6,0.6h6.8h0.2c0.4,0,0.7,0.2,0.6,0.6c0,0.3-0.2,0.5-0.6,0.5c-0.4,0-0.8,0-1.2,0v1.2
		h0.2h1.2c0.3,0,0.6,0.2,0.6,0.5s-0.2,0.5-0.5,0.6c-0.2,0-0.4,0-0.5,0c-1.2,0-2.3,0-3.4,0c-0.5,0-0.8-0.4-0.6-0.8
		c0.1-0.2,0.3-0.4,0.5-0.4h1.4c0-0.4,0-0.8,0-1.2c-0.1,0-0.2,0-0.3,0c-1.4,0-2.8,0-4.1,0c-1,0-1.8-0.8-1.8-1.8c0-2.2,0-4.3,0-6.5
		c0-1.1,0.8-1.9,1.9-1.9H12c1.2,0,1.9,0.7,1.9,1.9v2v0.2h0.6c0.9,0,1.5,0.5,1.6,1.5v3.9c0,0.4-0.2,0.7-0.5,0.7
		c-0.4,0-0.6-0.2-0.6-0.7c0-1.2,0-2.6,0-3.8c0-0.4,0-0.5-0.5-0.5c-0.8,0-1.5,0-2.3,0c-0.5,0.2-0.5,0.2-0.5,0.5v5.2
		c0,0.4,0.1,0.4,0.5,0.4c0.5,0,0.7,0.2,0.7,0.6c0,0.4-0.2,0.5-0.7,0.5c-1,0-1.6-0.5-1.6-1.6c0-1.7,0-3.4,0-5.2
		c0-0.9,0.5-1.6,1.6-1.6C12.3,5.9,12.4,5.9,12.6,5.9z"/>
</g>
</svg>
