<svg enable-background="new 0 0 20.5 16" viewBox="0 0 20.5 16" width="16" xmlns="http://www.w3.org/2000/svg"><g fill="#d22778"><path d="m16.2 5.3c-.3 0-.5 0-.8 0-1.2 0-2 .8-2 2v6.6c0 1.3.7 2 2.1 2 .5 0 .9-.3.9-.7 0-.5-.3-.8-.9-.8-.5 0-.6-.1-.6-.5 0-2.2 0-4.4 0-6.6 0-.5.1-.5.5-.5h2.9c.5 0 .6 0 .6.6v4.9c0 .5.3.9.8.9.4 0 .7-.3.7-.9 0-1.7 0-3.4 0-5 0-1.2-.8-1.9-2-1.9-.3 0-.5 0-.8 0 0-.1 0-.2 0-.3 0-.9 0-1.7 0-2.6 0-1.5-.9-2.4-2.4-2.4-4.2-.1-8.5-.1-12.8-.1-1.4 0-2.4 1-2.4 2.4v8.3c0 1.3 1 2.3 2.3 2.3h5.3.4v1.5c-.6 0-1.2 0-1.8 0-.3 0-.6.1-.7.5-.2.5.1 1 .8 1h4.4.7c.4 0 .7-.4.7-.8s-.3-.7-.8-.7-1 0-1.5 0c-.1 0-.2 0-.3 0 0-.5 0-1 0-1.5h1.6c.5 0 .8-.3.8-.7s-.3-.8-.8-.8c-.1 0-.1 0-.2 0-2.9 0-5.8 0-8.7 0-.6 0-.8-.2-.8-.8 0-2.8 0-5.5 0-8.3 0-.7.2-.9.9-.9h8.6 4.5c.5 0 .8.2.8.6z"/><path d="m16.2 5.3c0-1.1 0-2.2 0-3.2 0-.4-.3-.6-.8-.6-1.5 0-3 0-4.5 0-2.9 0-5.7 0-8.6 0-.7 0-.9.2-.9.9v8.3c0 .6.2.8.8.8h8.7.2c.5 0 .9.3.8.8 0 .4-.3.7-.8.7s-1 0-1.6 0v1.5h.3 1.5c.4 0 .8.3.8.7s-.3.7-.7.8c-.2 0-.5 0-.7 0-1.5 0-2.9 0-4.4 0-.6 0-1-.5-.8-1 .1-.3.4-.5.7-.5h1.8c0-.5 0-1 0-1.5-.1 0-.3 0-.4 0-1.8 0-3.6 0-5.3 0-1.3 0-2.3-1-2.3-2.3 0-2.8 0-5.5 0-8.3 0-1.4 1-2.4 2.4-2.4h13c1.5 0 2.4.9 2.4 2.4v2.6.3h.8c1.2 0 1.9.7 2 1.9v5c0 .5-.3.9-.7.9-.5 0-.8-.3-.8-.9 0-1.6 0-3.3 0-4.9 0-.5 0-.6-.6-.6-1 0-1.9 0-2.9 0-.6.2-.6.2-.6.7v6.6c0 .5.1.5.6.5.6 0 .9.3.9.8s-.3.7-.9.7c-1.3 0-2.1-.7-2.1-2 0-2.2 0-4.4 0-6.6 0-1.2.7-2 2-2 .2-.1.4-.1.7-.1z"/></g></svg>