<?xml version="1.0" standalone="no"?>
<!DOCTYPE svg PUBLIC "-//W3C//DTD SVG 20010904//EN"
 "http://www.w3.org/TR/2001/REC-SVG-20010904/DTD/svg10.dtd">
<svg version="1.0" xmlns="http://www.w3.org/2000/svg"
 width="1032.000000pt" height="1032.000000pt" viewBox="0 0 1032.000000 1032.000000"
 preserveAspectRatio="xMidYMid meet">
<metadata>
Created by potrace 1.11, written by Peter Selinger 2001-2013
</metadata>
<g transform="translate(0.000000,1032.000000) scale(0.100000,-0.100000)"
fill="#000000" stroke="none">
<path d="M3372 10300 c-26 -9 -67 -29 -90 -44 -48 -30 -122 -105 -122 -123 0
-6 -4 -13 -9 -15 -4 -1 -18 -29 -29 -60 -17 -46 -21 -75 -19 -145 3 -76 8 -97
37 -153 32 -63 98 -165 131 -202 9 -10 22 -31 30 -46 8 -15 17 -29 20 -32 6
-5 148 -210 164 -237 6 -9 18 -26 28 -37 9 -11 17 -23 17 -27 0 -4 6 -14 13
-21 6 -7 34 -46 60 -86 46 -68 48 -74 34 -95 -15 -23 -49 -65 -79 -98 -10 -10
-15 -19 -12 -19 3 0 -7 -17 -24 -37 -62 -81 -192 -321 -192 -357 0 -8 -4 -18
-10 -21 -8 -5 -47 -115 -56 -157 -1 -5 -2 -9 -4 -10 -2 -4 -11 -41 -12 -55 -1
-7 -5 -13 -9 -13 -4 0 -6 -8 -4 -18 1 -9 -3 -35 -10 -56 -7 -21 -12 -47 -10
-57 2 -10 0 -21 -4 -23 -4 -3 -7 -21 -6 -41 0 -19 -3 -35 -7 -35 -4 0 -5 -6
-2 -14 5 -12 -42 -56 -60 -56 -3 0 -45 -24 -93 -53 -48 -29 -99 -60 -113 -68
-14 -7 -27 -16 -30 -19 -12 -12 -101 -70 -108 -70 -4 0 -14 -9 -22 -20 -8 -11
-19 -20 -25 -20 -6 0 -21 -10 -35 -22 -14 -13 -43 -36 -65 -52 -22 -16 -56
-43 -76 -60 -20 -17 -60 -51 -89 -76 -29 -25 -68 -58 -85 -75 -18 -16 -55 -52
-84 -79 -40 -38 -54 -46 -65 -37 -7 6 -186 184 -397 395 -371 371 -435 428
-496 442 -15 4 -32 10 -38 14 -5 4 -23 6 -38 5 -15 -1 -30 2 -33 7 -3 4 -10 6
-15 2 -5 -3 -29 -7 -52 -8 -23 -1 -48 -5 -55 -10 -7 -4 -16 -6 -18 -3 -15 15
-193 -105 -194 -130 0 -7 -4 -13 -8 -13 -9 0 -61 -99 -68 -132 -24 -107 -1
-234 56 -320 16 -24 217 -231 446 -460 l416 -417 -23 -38 c-13 -21 -28 -43
-35 -50 -6 -6 -17 -25 -24 -42 -7 -17 -16 -31 -21 -31 -5 0 -9 -6 -9 -13 0 -7
-11 -28 -25 -47 -13 -18 -22 -37 -19 -41 3 -5 1 -9 -5 -9 -5 0 -15 -16 -22
-35 -7 -19 -16 -35 -20 -35 -3 0 -14 -21 -24 -47 -10 -27 -23 -55 -30 -63 -10
-13 -38 -76 -40 -90 -1 -3 -11 -25 -22 -50 -23 -49 -104 -262 -107 -282 -1 -7
-4 -17 -8 -23 -6 -10 -19 -67 -20 -82 0 -5 -4 -14 -10 -20 -6 -7 -8 -13 -4
-13 3 0 1 -11 -4 -25 -5 -14 -12 -36 -14 -48 -2 -12 -9 -42 -16 -67 -7 -25
-13 -54 -15 -65 -1 -11 -6 -36 -9 -55 -4 -19 -9 -44 -11 -55 -2 -11 -4 -20 -5
-20 -1 0 -3 -13 -5 -30 -4 -41 -15 -125 -20 -150 -7 -36 -18 -198 -19 -267 0
-38 -4 -68 -9 -68 -4 0 -4 -8 1 -17 8 -18 7 -132 -2 -140 -3 -3 -1 -16 4 -29
7 -17 6 -24 -3 -25 -6 -1 -149 -2 -317 -3 -314 -2 -349 -6 -422 -48 -79 -46
-167 -147 -185 -213 -25 -98 -27 -180 -5 -250 27 -86 114 -194 186 -231 91
-46 103 -47 486 -48 l364 -1 24 -80 c26 -90 26 -89 37 -130 13 -52 107 -328
126 -373 11 -24 17 -47 14 -52 -3 -4 2 -13 10 -20 8 -7 15 -21 15 -31 0 -11 5
-19 10 -19 6 0 10 -6 10 -12 0 -23 74 -95 120 -119 36 -18 61 -23 125 -23 100
0 133 7 215 46 83 40 135 76 205 143 61 58 65 69 49 133 -14 56 -20 80 -28
125 -3 12 -7 33 -10 47 -3 14 -8 39 -11 55 -7 43 -14 81 -20 110 -3 14 -7 43
-8 65 -1 22 -5 40 -8 40 -4 0 -7 10 -7 23 1 24 -10 132 -13 132 -5 0 -16 127
-24 290 -11 239 -1 621 21 750 3 17 7 41 9 55 2 14 11 66 20 115 21 112 23
120 25 120 1 0 3 8 5 19 9 46 28 122 34 131 3 6 6 15 7 21 1 9 20 71 39 134 1
3 7 18 13 33 7 16 12 31 12 33 0 3 8 24 19 47 17 40 32 76 36 87 1 3 8 19 15
35 7 17 13 33 12 38 -1 4 3 7 8 7 6 0 10 6 10 13 0 7 5 18 12 25 6 6 13 20 15
31 2 17 69 139 83 151 3 3 17 26 30 53 14 26 28 47 32 47 5 0 8 6 8 14 0 8 3
16 8 18 4 2 31 39 61 82 30 44 62 87 70 96 9 9 27 31 41 49 76 100 296 323
406 411 99 79 119 96 122 103 2 4 8 7 13 7 6 0 15 5 22 11 21 18 167 119 173
119 4 0 48 26 130 77 45 29 174 91 174 85 0 -4 4 -2 8 5 8 12 120 66 140 66 6
0 12 4 12 9 0 4 3 7 8 7 4 -1 21 4 39 10 18 7 35 12 39 11 4 -1 10 2 13 7 14
20 389 129 515 149 17 2 41 6 53 8 33 6 93 15 134 21 20 3 70 7 112 9 42 2 79
6 84 8 19 10 360 -1 498 -16 245 -26 605 -123 822 -222 159 -72 355 -173 361
-186 2 -5 8 -8 13 -8 6 0 22 -8 37 -18 111 -74 155 -102 162 -102 5 0 10 -3
12 -7 2 -5 30 -28 63 -53 33 -24 65 -48 70 -52 136 -110 262 -230 374 -356 75
-84 201 -248 201 -261 0 -5 4 -11 8 -13 18 -7 172 -257 172 -279 0 -5 5 -9 10
-9 6 0 10 -9 10 -20 0 -11 5 -20 10 -20 6 0 10 -4 10 -10 0 -5 19 -49 43 -97
24 -49 44 -90 45 -93 2 -11 17 -48 38 -97 13 -29 20 -53 17 -53 -3 0 -1 -6 4
-12 12 -16 41 -95 47 -128 2 -14 11 -42 19 -63 9 -20 14 -37 12 -37 -3 0 -1
-10 4 -23 5 -13 12 -41 15 -61 4 -21 8 -41 10 -45 2 -3 7 -22 10 -41 3 -19 8
-46 10 -60 9 -54 26 -168 33 -230 10 -82 10 -482 0 -575 -16 -150 -32 -256
-48 -319 -6 -22 -12 -49 -14 -60 -1 -12 -5 -28 -8 -36 -5 -14 -46 -163 -50
-185 -2 -5 -6 -16 -10 -22 -5 -7 -6 -17 -3 -22 4 -5 3 -11 -2 -13 -5 -2 -36
-85 -47 -128 -1 -3 -7 -18 -15 -35 -43 -98 -50 -115 -50 -121 0 -25 -228 -435
-271 -488 -5 -6 -30 -40 -56 -76 -26 -36 -52 -70 -58 -76 -5 -6 -28 -33 -50
-60 -64 -79 -385 -394 -385 -379 0 3 -8 -3 -18 -12 -42 -41 -206 -163 -217
-163 -3 0 -14 -8 -25 -17 -10 -10 -36 -27 -57 -37 -21 -11 -48 -29 -60 -40
-13 -11 -23 -16 -23 -11 0 4 -8 1 -17 -7 -45 -40 -400 -198 -543 -242 -30 -10
-61 -19 -68 -22 -7 -2 -14 -4 -17 -4 -3 -1 -19 -6 -37 -11 -39 -12 -144 -39
-173 -45 -11 -2 -40 -8 -65 -14 -45 -9 -153 -28 -220 -36 -19 -3 -48 -7 -65
-10 -50 -10 -536 -12 -600 -4 -33 5 -82 11 -110 14 -280 34 -387 119 -421 335
-7 47 -7 2484 1 2611 10 184 54 321 148 460 32 46 183 200 197 200 5 0 15 6
23 14 24 25 153 85 229 107 97 28 295 35 388 13 36 -8 75 -17 86 -19 12 -3 38
-12 58 -20 20 -8 37 -14 38 -13 2 2 17 -7 35 -20 17 -12 34 -22 37 -22 12 0
110 -77 155 -121 77 -76 168 -232 185 -317 2 -10 6 -24 10 -34 4 -9 9 -31 11
-50 2 -18 4 -33 5 -33 1 0 3 -16 5 -35 2 -20 5 -50 8 -68 3 -18 2 -32 -1 -32
-4 0 -8 -33 -8 -73 -2 -69 -35 -212 -55 -232 -5 -5 -9 -17 -9 -27 0 -10 -4
-18 -10 -18 -5 0 -10 -6 -10 -13 0 -18 -24 -67 -32 -67 -5 0 -8 -5 -8 -11 0
-21 -100 -147 -159 -201 -100 -92 -256 -173 -418 -218 -68 -19 -98 -24 -188
-36 -16 -2 -82 -4 -145 -5 -71 0 -122 -5 -131 -13 -15 -10 -22 -30 -34 -97 -3
-15 -14 -71 -26 -125 -25 -119 -31 -225 -15 -270 31 -90 96 -132 266 -173 152
-37 253 -48 417 -45 159 2 212 7 343 36 149 32 314 97 463 181 42 24 152 101
159 111 4 6 8 7 8 3 0 -5 6 -2 14 5 7 7 37 33 66 58 99 85 203 201 269 300 51
76 103 170 94 170 -5 0 -3 4 3 8 27 18 97 228 129 387 20 101 26 364 12 510
-8 84 -42 261 -62 325 -3 10 -7 27 -9 37 -9 41 -61 174 -97 246 -10 20 -17 37
-14 37 3 0 -13 29 -35 65 -22 36 -40 68 -40 70 0 9 -91 138 -138 195 -64 79
-121 140 -132 140 -5 0 -12 9 -15 20 -3 11 -9 20 -13 20 -4 0 -25 16 -47 36
-103 92 -335 246 -372 247 -7 0 -13 4 -13 9 0 4 -4 8 -10 8 -5 0 -38 13 -72
28 -86 39 -227 87 -313 108 -57 14 -123 26 -150 29 -16 2 -30 4 -30 5 0 4
-136 12 -215 13 -108 0 -220 -6 -220 -13 0 -3 -14 -5 -32 -4 -18 0 -48 -3 -68
-7 -19 -4 -48 -10 -65 -13 -33 -5 -64 -12 -110 -23 -16 -4 -32 -7 -35 -8 -16
-3 -120 -39 -150 -52 -78 -33 -215 -98 -220 -104 -3 -3 -22 -14 -42 -24 -21
-9 -38 -21 -38 -26 0 -5 -6 -9 -13 -9 -41 0 -379 -301 -437 -389 -8 -13 -27
-37 -42 -55 -15 -17 -35 -46 -45 -63 -10 -18 -21 -33 -25 -33 -5 0 -8 -7 -8
-15 0 -8 -5 -15 -11 -15 -5 0 -8 -4 -5 -9 3 -5 0 -14 -8 -20 -12 -10 -79 -141
-119 -231 -32 -74 -98 -313 -112 -406 -10 -67 -15 -117 -19 -182 -2 -35 -6
-66 -9 -69 -4 -3 -2 -14 4 -24 5 -11 6 -19 2 -19 -10 0 -10 -571 0 -587 4 -6
3 -14 -1 -17 -7 -4 -9 -51 -2 -51 7 0 6 -36 -1 -41 -5 -3 -5 -13 1 -24 6 -12
6 -21 1 -25 -10 -5 -7 -37 4 -55 3 -6 3 -10 -2 -10 -4 0 -8 -11 -8 -25 0 -14
4 -25 8 -25 4 0 3 -9 -3 -19 -6 -13 -7 -22 0 -26 6 -4 6 -15 0 -31 -7 -17 -7
-23 0 -19 6 4 6 -4 -1 -22 -6 -15 -10 -30 -9 -33 2 -3 6 -15 11 -28 6 -14 5
-21 0 -17 -6 3 -6 -6 -1 -25 5 -16 6 -30 2 -30 -8 0 -7 -83 2 -105 3 -8 1 -15
-4 -15 -6 0 -6 -10 0 -26 6 -14 7 -23 2 -20 -9 5 -7 -58 3 -73 3 -6 3 -11 -2
-11 -9 0 -8 -89 1 -97 3 -3 1 -14 -5 -24 -7 -13 -6 -19 1 -19 7 0 8 -6 0 -19
-6 -13 -7 -22 0 -26 6 -4 6 -15 0 -31 -7 -17 -7 -23 0 -19 6 4 6 -4 -1 -22 -6
-15 -10 -28 -10 -28 0 0 4 -13 10 -28 6 -16 7 -26 2 -22 -6 3 -6 -6 -1 -25 5
-17 5 -30 0 -30 -5 0 -5 -13 0 -28 4 -16 4 -36 -1 -45 -6 -10 -5 -18 1 -22 7
-4 8 -11 1 -18 -12 -15 -12 -27 0 -49 5 -10 6 -18 1 -18 -4 0 -8 -9 -8 -20 0
-11 4 -20 9 -20 6 0 6 -5 0 -13 -4 -6 -8 -136 -7 -287 2 -304 10 -450 28 -530
3 -14 8 -38 12 -55 9 -48 45 -167 61 -205 28 -68 57 -125 71 -142 9 -10 12
-18 8 -18 -14 0 118 -184 177 -247 50 -53 158 -146 223 -191 41 -29 224 -123
224 -115 0 3 6 1 13 -4 23 -19 212 -78 310 -97 15 -4 37 -8 50 -11 48 -9 84
-15 135 -21 29 -3 63 -7 75 -9 121 -24 707 -24 847 -1 14 3 50 7 80 10 122 14
415 71 496 97 17 5 42 12 55 14 24 5 121 32 149 43 8 3 21 6 28 8 8 1 21 6 30
10 9 4 23 8 31 10 11 2 62 21 146 54 75 29 111 46 116 53 3 5 9 8 13 8 28 -5
337 146 501 244 104 61 219 138 223 148 2 4 8 7 13 7 6 0 28 14 49 31 l39 32
341 -339 c878 -874 903 -898 962 -914 4 -1 27 -8 50 -15 24 -7 73 -11 109 -10
68 3 179 32 179 47 0 4 6 8 14 8 24 0 124 108 151 164 14 29 29 75 33 102 13
80 3 184 -20 211 -6 7 -8 13 -4 13 3 0 -8 22 -25 49 -26 43 -332 357 -1021
1048 l-171 172 35 43 c20 24 46 55 59 69 30 33 47 54 84 104 16 22 33 42 36
45 12 10 170 243 172 254 1 6 4 13 7 16 38 35 276 492 278 534 0 5 4 12 9 15
4 3 19 33 31 66 13 33 28 69 33 80 28 65 132 398 145 465 2 14 7 32 10 40 3 8
8 29 11 45 3 17 6 35 7 40 2 6 8 37 15 70 l13 61 371 1 c207 0 390 5 412 11
22 5 47 11 55 13 8 2 17 6 20 9 3 3 22 14 43 25 56 30 118 96 151 161 24 47
31 75 34 142 7 124 -25 204 -115 295 -39 40 -106 86 -133 92 -3 1 -25 7 -50
14 -33 10 -137 14 -387 14 -237 0 -343 4 -344 11 -1 6 -3 54 -5 106 -2 52 -6
118 -8 145 -10 95 -17 150 -22 180 -3 17 -7 46 -9 65 -2 19 -4 37 -5 40 -1 3
-2 8 -1 12 0 4 -8 47 -20 95 -11 49 -22 100 -24 115 -2 15 -6 36 -10 47 -3 11
-7 28 -9 38 -17 84 -99 348 -130 418 -8 17 -17 41 -21 55 -4 14 -20 51 -35 82
-16 31 -26 59 -22 62 3 3 -1 6 -8 6 -7 0 -10 3 -7 6 5 5 -138 296 -178 362
-27 44 -39 68 -40 75 0 4 -5 11 -12 15 -6 4 -14 18 -18 32 -5 22 12 43 142
172 743 739 819 821 851 923 28 91 0 260 -53 323 -14 17 -25 33 -25 36 0 11
-75 75 -87 76 -7 0 -13 3 -13 8 0 9 -67 39 -107 48 -34 8 -159 8 -191 0 -13
-3 -49 -17 -80 -32 -48 -22 -123 -92 -493 -461 -240 -239 -439 -436 -442 -437
-3 0 -54 46 -114 104 -117 114 -191 181 -242 220 -18 14 -45 36 -61 50 -16 14
-45 36 -65 50 -20 14 -49 35 -65 48 -15 12 -33 22 -39 22 -6 0 -11 4 -11 8 0
5 -24 24 -52 42 -29 18 -64 40 -78 49 -14 8 -36 22 -50 29 -71 38 -87 58 -89
114 -2 53 -5 80 -16 131 -6 30 -10 53 -20 112 -3 22 -9 47 -12 55 -7 18 -10
27 -16 62 -3 14 -10 36 -17 47 -6 12 -9 21 -6 21 2 0 -4 22 -13 48 -63 172
-151 335 -268 495 -39 54 -45 80 -23 97 4 3 40 55 80 115 41 61 79 116 86 123
7 6 16 21 19 32 3 11 11 20 16 20 5 0 13 8 16 18 7 18 40 68 60 89 6 7 15 22
18 33 3 11 11 20 16 20 5 0 9 6 9 14 0 8 4 16 8 18 5 2 33 39 62 83 29 44 56
82 60 85 9 6 95 150 96 162 1 4 2 9 3 11 10 11 16 66 15 137 0 71 -5 95 -28
145 -15 33 -33 63 -39 67 -7 4 -9 8 -5 8 9 0 -79 80 -107 98 -100 63 -222 78
-333 42 -59 -18 -86 -34 -137 -78 -24 -21 -74 -81 -85 -103 -7 -13 -16 -26
-19 -29 -15 -12 -61 -80 -55 -80 4 0 -3 -8 -14 -19 -12 -10 -22 -21 -22 -25 0
-6 -134 -203 -157 -231 -25 -31 -93 -137 -93 -145 0 -6 -4 -10 -8 -10 -4 0
-25 -27 -46 -60 -21 -33 -42 -60 -47 -60 -4 0 -47 18 -96 41 -118 55 -136 63
-173 72 -8 2 -27 9 -43 15 -15 7 -39 14 -52 16 -14 3 -30 8 -37 12 -7 4 -21 9
-33 11 -11 1 -27 4 -35 6 -33 8 -96 21 -115 23 -11 1 -20 3 -20 4 0 2 -38 7
-110 16 -110 13 -427 7 -535 -10 -14 -2 -47 -7 -73 -11 -27 -4 -87 -18 -135
-31 -48 -13 -96 -26 -106 -29 -31 -7 -157 -56 -215 -83 l-54 -26 -19 25 c-10
13 -24 31 -31 39 -7 8 -18 27 -24 43 -7 15 -17 27 -23 27 -5 0 -10 5 -10 11 0
6 -13 28 -28 48 -15 20 -34 48 -41 64 -8 15 -18 27 -23 27 -4 0 -8 6 -8 14 0
8 -4 16 -8 18 -8 3 -122 166 -122 174 0 3 -11 17 -25 32 -14 15 -25 32 -25 38
0 6 -9 19 -20 29 -11 10 -20 22 -20 27 0 5 -6 15 -12 22 -7 7 -22 25 -33 41
-19 27 -28 36 -78 78 -83 71 -242 97 -355 57z"/>
</g>
</svg>
