<?xml version="1.0" encoding="utf-8"?>
<!-- Generator: Adobe Illustrator 17.1.0, SVG Export Plug-In . SVG Version: 6.00 Build 0)  -->
<!DOCTYPE svg PUBLIC "-//W3C//DTD SVG 1.1//EN" "http://www.w3.org/Graphics/SVG/1.1/DTD/svg11.dtd">
<svg version="1.1" id="Layer_1" xmlns="http://www.w3.org/2000/svg" xmlns:xlink="http://www.w3.org/1999/xlink" x="0px" y="0px"
	 width="247.7px" height="258.2px" viewBox="83.8 9 247.7 258.2" enable-background="new 83.8 9 247.7 258.2" xml:space="preserve">
<title  id="simpleicons-processwire-icon">ProcessWire icon</title>
<g>
	<path fill="none" d="M214.2,57c0.5,0,1.1,0.1,1.6,0.1C215.2,57.1,214.7,57.1,214.2,57z"/>
	<path fill="none" d="M190.5,57.9c0.3,0,0.5-0.1,0.8-0.1C191.1,57.9,190.8,57.9,190.5,57.9z"/>
	<path fill="none" d="M185.5,58.9c0.4-0.1,0.7-0.1,1.1-0.2C186.3,58.7,185.9,58.8,185.5,58.9z"/>
	<path fill="none" d="M202.5,56.8c0.5,0,0.9,0,1.4-0.1C203.4,56.7,202.9,56.7,202.5,56.8z"/>
	<path fill="none" d="M210.2,56.8c0.5,0,1.1,0,1.6,0.1C211.2,56.8,210.7,56.8,210.2,56.8z"/>
	<path fill="none" d="M199.3,56.9c0.2,0,0.4,0,0.6,0C199.7,56.9,199.5,56.9,199.3,56.9z"/>
	<path fill="none" d="M180.9,59.9c0.3-0.1,0.6-0.1,0.8-0.2C181.5,59.8,181.2,59.8,180.9,59.9z"/>
	<path fill="none" d="M162.5,66.5c0.2-0.1,0.5-0.2,0.7-0.3C163,66.2,162.8,66.4,162.5,66.5z"/>
	<path fill="none" d="M171.3,62.8c0.2-0.1,0.4-0.1,0.6-0.2C171.7,62.7,171.5,62.8,171.3,62.8z"/>
	<path fill="none" d="M166.7,64.6c0.3-0.1,0.6-0.3,0.9-0.4C167.3,64.4,167,64.5,166.7,64.6z"/>
	<path fill="none" d="M218.2,57.5c0.5,0.1,1,0.1,1.6,0.2C219.2,57.6,218.7,57.5,218.2,57.5z"/>
	<path fill="none" d="M245.5,64.9c0.1,0.1,0.3,0.1,0.4,0.2C245.8,65,245.7,65,245.5,64.9z"/>
	<path fill="none" d="M252.5,68.2c0.4,0.2,0.9,0.4,1.3,0.7C253.4,68.7,252.9,68.5,252.5,68.2z"/>
	<path fill="none" d="M206.3,56.7c0.5,0,1,0,1.5,0C207.3,56.7,206.8,56.7,206.3,56.7z"/>
	<path fill="none" d="M248.8,66.4c0.4,0.2,0.7,0.3,1.1,0.5C249.5,66.7,249.2,66.6,248.8,66.4z"/>
	<path fill="none" d="M234.4,60.8c0.2,0.1,0.4,0.1,0.6,0.2C234.7,61,234.5,60.9,234.4,60.8z"/>
	<path fill="none" d="M222.2,58c0.5,0.1,1,0.2,1.5,0.3C223.2,58.2,222.7,58.1,222.2,58z"/>
	<path fill="none" d="M226.3,58.8c0.5,0.1,0.9,0.2,1.4,0.3C227.2,59,226.7,58.9,226.3,58.8z"/>
	<path fill="none" d="M230.3,59.7c0.4,0.1,0.8,0.2,1.2,0.3C231.1,60,230.7,59.8,230.3,59.7z"/>
	<path fill="#D22778" d="M328.6,156.2c-2-2-4.3-2.9-7-2.9h-15.9h0c0,0,0,0.1,0,0.1c-0.1-6.4-0.8-12.8-2.3-19.1
		c-2-10.2-6.8-21.2-12.6-30.7L313.4,81c2-2,2.9-4.3,2.9-7c0-2.7-1-5-2.9-7c-2-2-4.3-2.9-7-2.9c-2.7,0-5,1-7,2.9l-20.8,20.8
		c-4.9-5.1-10.4-9.9-16-13.6c-2.1-1.4-4.2-2.7-6.4-4c0.3,0.2,0.6,0.3,0.9,0.5c0,0,0,0,0,0c0,0,0,0,0,0c0-0.1,0-0.2,0-0.3
		c0,0,0,0,0,0c-0.7-10.2-4.2-19.2-10.5-27l13.1-19c1.6-2.3,2.1-4.7,1.6-7.4c-0.5-2.6-1.9-4.7-4.2-6.3c-2.3-1.6-4.7-2.1-7.4-1.6
		c-2.6,0.5-4.7,1.9-6.3,4.2l-12,17.4c-7.1-3.9-15-5.9-23.7-5.9c-8.1,0-15.5,1.7-22.2,5.1l-11.4-16.6c-1.6-2.3-3.7-3.7-6.3-4.2
		c-2.6-0.5-5.1,0.1-7.4,1.6c-2.3,1.6-3.7,3.7-4.2,6.3c-0.5,2.6,0.1,5.1,1.6,7.4L170,42.1c-6.5,7.5-10.4,16.2-11.5,26c0,0,0,0,0,0
		c0,0.1,0,0.2,0,0.3c-6.9,3.7-13.3,8.2-19.2,13.5c-1.5,1.4-3,2.8-4.5,4.2c0.1-0.1,0.1-0.1,0.2-0.2l-19-19c-2-2-4.3-2.9-7-2.9
		c-2.7,0-5,1-7,2.9c-2,2-2.9,4.3-2.9,7c0,2.7,1,5,2.9,7l20.4,20.4c-5.4,8-9.2,16.4-11.5,24.6c-2.8,9.8-3.5,19.1-3.3,27.3H93.7
		c-2.7,0-5,1-7,2.9c-2,2-2.9,4.3-2.9,7c0,2.7,1,5,2.9,7c2,2,4.3,2.9,7,2.9h16.5c2.2,8.6,5.4,16.7,5.4,16.7c1.1,2.6,2.6,3.6,3.4,4.1
		c3.9,2.1,10.3,0.3,15.2-5.3c0.2-0.3,0.4-0.8,0.2-1.2c-1.4-5.3-1.9-9.2-2.4-12.3c-1.1-6.1-1.6-16.3-0.9-25.7
		c0.4-5.1,1.4-10.5,3.1-16.3c3.4-11.3,10.4-23.1,21.5-32.9c11.9-10.5,27.2-17.1,41.7-18.7c5.1-0.6,14.8-1.2,26.4,1.7
		c2.5,0.6,13.2,3.4,24.6,11.1c8.3,5.6,15,12.6,19.6,19.5c4.7,6.6,9.8,17.7,11.3,25.8c2.1,9.2,2.1,19,0.6,28.6
		c-1.9,9.6-5.2,18.9-10.4,27c-3.6,6.3-11,14.7-19.8,21c-7.9,5.6-17,9.6-26.3,11.8c-4.7,1.1-9.4,1.8-14.3,2c-4.3,0.1-10,0-14-0.7
		c-6-0.9-7.2-2.5-8.6-4.5c0,0-0.9-1.5-1.2-5.5c0.1-36.4,0.1-26.7,0.1-45.5c0-5.3-0.2-10.2-0.1-14.6c0.2-7.2,0.9-12.2,6-17.5
		c3.7-4,8.9-6.3,14.7-6.3c1.7,0,7.7,0.1,13,4.5c5.7,4.7,6.6,11.2,6.8,12.9c1.3,10.1-5.4,17.6-7.9,19.5c-3.2,2.4-6,3.5-7.9,4.2
		c-4.1,1.4-8.6,1.8-12.6,1.5c-0.6,0-1.2,0.4-1.3,1l-1.4,7.1c-1.3,5.4,1.7,7.3,3.4,8c5.5,1.7,10.5,2.4,16.3,2
		c8.9-0.6,17.7-4.1,25.2-11.1c6.4-6,10-13.5,11.2-21.8c1.2-9.3-0.4-19.2-4.6-27.7c-4.6-9.3-12.6-17.1-23.2-21.3
		c-10.7-4.2-19.1-4.3-30.1-1.6l-0.1,0c-7.1,2.4-13.2,5.5-19.5,12c-4.3,4.5-7.9,10-10,16.1c-2.1,6.2-2.7,10.8-2.8,18
		c-0.1,5.3,0.1,10.3,0.1,14.9v30.6c0,9.8-0.3,11.5,0,16.5c0.2,3.3,0.6,7.1,2.1,11.2c1.5,4.5,4.7,9,6.8,11.2c3,3.2,6.9,5.8,10.7,7.4
		c8.7,3.9,20.5,4.5,30,4.1c6.3-0.2,12.7-1.1,18.9-2.6c12.5-3,24.4-8.4,35-15.8c0.5-0.4,1.1-0.8,1.6-1.2l0,0l29.3,29.1
		c1.9,2,4.2,2.9,7,2.9c2.8,0,5.1-1,7-2.9c2-2,2.9-4.3,2.9-7s-1-5-2.9-7l-28.4-28.6l0,0c4.1-4.5,7.6-9.2,10.1-13.5
		c6.8-10.8,11.3-22.8,13.6-35.2h0h17.5c2.7,0,5-1,7-2.9c2-2,2.9-4.3,2.9-7C331.5,160.5,330.6,158.2,328.6,156.2z M163.3,66.1
		c-0.2,0.1-0.5,0.2-0.7,0.3C162.8,66.4,163,66.2,163.3,66.1z M167.6,64.2c-0.3,0.1-0.6,0.2-0.9,0.4C167,64.5,167.3,64.4,167.6,64.2z
		 M171.9,62.6c-0.2,0.1-0.4,0.1-0.6,0.2C171.5,62.8,171.7,62.7,171.9,62.6z M181.8,59.7c-0.3,0.1-0.6,0.1-0.8,0.2
		C181.2,59.8,181.5,59.8,181.8,59.7z M186.6,58.6c-0.4,0.1-0.7,0.1-1.1,0.2C185.9,58.8,186.3,58.7,186.6,58.6z M191.3,57.8
		c-0.3,0-0.5,0.1-0.8,0.1C190.8,57.9,191.1,57.9,191.3,57.8z M200,56.9c-0.2,0-0.4,0-0.6,0C199.5,56.9,199.7,56.9,200,56.9z
		 M203.9,56.7c-0.5,0-0.9,0-1.4,0.1C202.9,56.7,203.4,56.7,203.9,56.7z M211.8,56.9c-0.5,0-1.1-0.1-1.6-0.1
		C210.7,56.8,211.2,56.8,211.8,56.9z M215.7,57.2c-0.5-0.1-1.1-0.1-1.6-0.1C214.7,57.1,215.2,57.1,215.7,57.2z M219.7,57.7
		c-0.5-0.1-1-0.1-1.6-0.2C218.7,57.5,219.2,57.6,219.7,57.7z M223.7,58.3c-0.5-0.1-1-0.2-1.5-0.3C222.7,58.1,223.2,58.2,223.7,58.3z
		 M227.7,59.1c-0.5-0.1-0.9-0.2-1.4-0.3C226.7,58.9,227.2,59,227.7,59.1z M231.5,60.1c-0.4-0.1-0.8-0.2-1.2-0.3
		C230.7,59.8,231.1,60,231.5,60.1z M234.9,61c-0.2-0.1-0.4-0.1-0.6-0.2C234.5,60.9,234.7,61,234.9,61z M246,65.1
		c-0.1-0.1-0.3-0.1-0.4-0.2C245.7,65,245.8,65,246,65.1z M249.9,66.9c-0.4-0.2-0.7-0.3-1.1-0.5C249.2,66.6,249.5,66.7,249.9,66.9z
		 M253.8,68.9c-0.4-0.2-0.9-0.5-1.3-0.7C252.9,68.5,253.4,68.7,253.8,68.9z M206.3,56.7c0.5,0,1,0,1.5,0
		C207.3,56.7,206.8,56.7,206.3,56.7z"/>
</g>
</svg>
