<?xml version="1.0" encoding="utf-8"?>
<!-- Generator: Adobe Illustrator 17.1.0, SVG Export Plug-In . SVG Version: 6.00 Build 0)  -->
<!DOCTYPE svg PUBLIC "-//W3C//DTD SVG 1.1//EN" "http://www.w3.org/Graphics/SVG/1.1/DTD/svg11.dtd">
<svg version="1.1" id="Layer_1" xmlns="http://www.w3.org/2000/svg" xmlns:xlink="http://www.w3.org/1999/xlink" x="0px" y="0px"
	 width="150px" height="156.6px" viewBox="132.7 59.9 150 156.6" enable-background="new 132.7 59.9 150 156.6"
	 xml:space="preserve">
<title>Tracy Debugger for ProcessWire icon</title>
<path fill="#D22778" d="M280.9,149.1c-1.2-1.2-2.5-1.8-4.2-1.8H267l0,0c0,0.1,0,0.1,0,0.1c-0.1-3.9-0.5-7.7-1.3-11.5
	c-1.2-6.1-4.1-12.9-7.6-18.6l13.7-13.7c1.2-1.2,1.8-2.6,1.8-4.3s-0.6-3.1-1.8-4.2c-1.2-1.2-2.6-1.7-4.2-1.7s-3.1,0.6-4.2,1.7
	l-12.7,12.7c-3-3.1-6.4-6-9.7-8.2c-1.3-0.9-2.5-1.6-3.8-2.4c0.1,0.1,0.3,0.1,0.5,0.3l0,0l0,0c0-0.1,0-0.1,0-0.1l0,0
	c-0.4-6.1-2.5-11.6-6.4-16.3l7.9-11.5c0.9-1.3,1.3-2.8,1-4.5c-0.3-1.6-1.1-2.8-2.5-3.8c-1.4-1-2.9-1.3-4.4-1
	c-1.6,0.3-2.9,1.1-3.8,2.5l-7.2,10.5c-4.3-2.4-9.1-3.6-14.4-3.6c-4.9,0-9.4,1-13.4,3.1l-6.9-10c-0.9-1.4-2.2-2.2-3.8-2.5
	c-1.6-0.3-3.1,0-4.4,1c-1.4,0.9-2.2,2.2-2.5,3.8c-0.3,1.6,0.1,3.1,1,4.4l7.3,10.7c-4,4.6-6.3,9.8-6.9,15.7c0,0,0,0-0.1,0
	c0,0.1,0,0.1-0.1,0.1c-4.2,2.2-8.1,4.9-11.7,8.2c-0.9,0.8-1.8,1.6-2.7,2.5c0.1,0,0.1-0.1,0.1-0.1L152.1,95c-1.2-1.2-2.5-1.7-4.2-1.7
	s-3.1,0.6-4.3,1.7c-1.2,1.2-1.7,2.5-1.7,4.2c0,1.6,0.6,3.1,1.7,4.3l12.3,12.4c-3.2,4.9-5.5,9.9-7,14.8c-1.6,5.9-2.1,11.5-1.9,16.6
	h-8.4c-1.6,0-3.1,0.6-4.2,1.8c-1.2,1.2-1.8,2.5-1.8,4.2c0,1.6,0.6,3.1,1.8,4.2c1.2,1.2,2.5,1.8,4.2,1.8h10
	c1.3,5.2,3.3,10.1,3.3,10.1c0.7,1.6,1.6,2.2,2.1,2.5c2.3,1.3,6.2,0.1,9.2-3.1c0.1-0.1,0.2-0.5,0.1-0.7c-0.8-3.1-1.1-5.5-1.4-7.5
	c-0.7-3.7-1-9.8-0.5-15.6c0.2-3.1,0.8-6.4,1.9-9.8c2-6.8,6.3-14,13-19.9c7.2-6.4,16.4-10.3,25.3-11.4c3.1-0.4,8.9-0.7,16,1
	c1.5,0.4,7.9,2.1,14.9,6.7c5,3.4,9.1,7.6,11.9,11.8c2.8,4,5.9,10.6,6.8,15.6c1.3,5.5,1.3,11.5,0.4,17.3c-1.1,5.8-3.1,11.5-6.3,16.4
	c-2.2,3.8-6.7,8.9-12,12.7c-4.8,3.4-10.3,5.8-15.9,7.2c-2.8,0.7-5.7,1-8.6,1.2c-2.5,0.1-6.1,0-8.5-0.4c-3.6-0.6-4.3-1.5-5.2-2.7
	c0,0-0.6-0.9-0.7-3.3c0.1-22,0.1-16.2,0.1-27.6c0-3.2-0.1-6.1-0.1-8.8c0.1-4.3,0.5-7.3,3.7-10.6c2.2-2.4,5.4-3.8,8.8-3.8
	c1,0,4.6,0.1,7.9,2.7c3.4,2.8,4,6.8,4.1,7.8c0.8,6.1-3.2,10.6-4.8,11.8c-1.9,1.4-3.7,2.2-4.8,2.5c-2.5,0.8-5.2,1-7.6,0.9
	c-0.4-0.1-0.7,0.2-0.8,0.6l-0.8,4.3c-0.8,3.3,1,4.4,2.1,4.9c3.3,1,6.3,1.4,9.8,1.2c5.4-0.4,10.7-2.5,15.3-6.7
	c3.8-3.7,6.1-8.2,6.8-13.3c0.7-5.5-0.2-11.6-2.8-16.8c-2.8-5.6-7.6-10.3-14.1-12.9s-11.5-2.6-18.2-0.9l-0.1,0.1
	c-4.3,1.4-8,3.3-11.8,7.3c-2.6,2.8-4.8,6.1-6.1,9.7c-1.3,3.7-1.6,6.6-1.7,10.9c-0.1,3.2,0.1,6.2,0.1,9.1v18.5c0,5.9-0.1,7,0,10
	c0.1,2,0.4,4.3,1.3,6.7c0.9,2.7,2.8,5.5,4.1,6.7c1.8,1.9,4.2,3.5,6.4,4.5c5.2,2.3,12.4,2.7,18.1,2.5c3.8-0.1,7.6-0.7,11.4-1.6
	c7.6-1.8,14.8-5.1,21.1-9.6c0.3-0.2,0.7-0.4,1-0.7l0,0l17.7,17.6c1.1,1.2,2.5,1.8,4.2,1.8c1.6,0,3.1-0.6,4.2-1.8
	c1.2-1.2,1.8-2.5,1.8-4.2c0-1.6-0.6-3.1-1.8-4.2L251.7,189l0,0c2.5-2.7,4.6-5.5,6.1-8.2c4.1-6.5,6.8-13.8,8.2-21.3l0,0h10.6
	c1.6,0,3.1-0.6,4.2-1.8c1.2-1.2,1.8-2.5,1.8-4.2C282.7,151.7,282.1,150.3,280.9,149.1z"/>
</svg>
