<svg xmlns="http://www.w3.org/2000/svg" xmlns:xlink="http://www.w3.org/1999/xlink" version="1.1" x="0px" y="0px" width="12px" height="12px" viewBox="0 0 405.07 405.07" style="enable-background:new 0 0 405.07 405.07; width:12px !important; height:12px !important" xml:space="preserve">
    <path d="M202.531,0C90.676,0,0,90.678,0,202.535C0,314.393,90.676,405.07,202.531,405.07c111.859,0,202.539-90.678,202.539-202.535   C405.07,90.678,314.391,0,202.531,0z M243.192,312.198c0,8.284-6.716,15-15,15h-27.629c-8.284,0-15-6.716-15-15v-168.35   l-17.1,9.231c-4.069,2.197-8.924,2.393-13.155,0.536c-4.233-1.858-7.373-5.565-8.51-10.046l-5.459-21.518   c-1.695-6.683,1.383-13.66,7.461-16.913l47.626-25.491c2.177-1.166,4.608-1.775,7.078-1.775h24.688c8.284,0,15,6.716,15,15V312.198   z" fill="#FF9933" />
</svg>